<?xml version="1.0" encoding="UTF-8" standalone="no"?> <svg height="512pt" viewBox="0 0 512 512" width="512pt" xmlns="http://www.w3.org/2000/svg"><path d="m61 482h30v30h-30zm0 0" fill="#73e6d3"/><path d="m121 422h30v30h-30zm0 0" fill="#73e6d3"/><path d="m181 482h30v30h-30zm0 0" fill="#73e6d3"/><path d="m241 422h30v30h-30zm0 0" fill="#73e6d3"/><g fill="#6cb"><path d="m301 482h30v30h-30zm0 0"/><path d="m361 422h30v30h-30zm0 0"/><path d="m421 482h30v30h-30zm0 0"/><path d="m421 362h30v30h-30zm0 0"/><path d="m301 362h30v30h-30zm0 0"/></g><path d="m181 362h30v30h-30zm0 0" fill="#73e6d3"/><path d="m61 362h30v30h-30zm0 0" fill="#73e6d3"/><path d="m512 241c0 49.5-41.5 91-91 91h-300c-66.300781 0-121-54.699219-121-121 0-62.402344 47.5-114.101562 108.699219-120.097656 27.902343-55.503906 84.898437-90.902344 147.300781-90.902344s118.800781 35.097656 147 90c42-2.101562 78 33.699219 78 76 0 2.398438 0 5.097656-.601562 7.800781 19.5 16.800781 31.601562 41.398438 31.601562 67.199219zm0 0" fill="#e3eeff"/><path d="m512 241c0 49.5-41.5 91-91 91h-165v-332c62.402344 0 118.800781 35.097656 147 90 42-2.101562 78 33.699219 78 76 0 2.398438 0 5.097656-.601562 7.800781 19.5 16.800781 31.601562 41.398438 31.601562 67.199219zm0 0" fill="#c4d9f2"/><path d="m256 422h15v30h-15zm0 0" fill="#6cb"/></svg>